<svg width="270" height="270" viewBox="0 0 270 270" fill="none" xmlns="http://www.w3.org/2000/svg">
<g filter="url(#filter0_f_886_34)">
<circle cx="135" cy="135" r="55" fill="#D0A2C8" fill-opacity="0.25"/>
</g>
<path d="M109.767 140.212H131.691C133.824 140.181 135.888 140.992 137.449 142.478C139.01 143.964 139.947 146.012 140.061 148.19C140.174 150.368 139.455 152.505 138.056 154.152C136.657 155.798 134.688 156.827 132.563 157.025L132.559 157.026C132.271 157.056 131.979 157.071 131.685 157.071V158.071H133.495L133.552 158.057L162.915 151.176L162.929 151.173L162.941 151.169C164.567 150.694 166.309 150.858 167.823 151.627C169.338 152.397 170.517 153.718 171.125 155.333C171.733 156.948 171.724 158.736 171.101 160.345C170.479 161.95 169.291 163.257 167.774 164.012L150.803 171.383L122.856 178.5H91.8623V154.203L102.677 143.186C103.61 142.239 104.716 141.491 105.933 140.981C107.149 140.47 108.452 140.209 109.767 140.212ZM90.8623 154.498V178.5H75.5V154.498H90.8623Z" stroke="#8A7A95"/>
<path d="M156.494 99.5C159.116 99.4883 161.715 100.006 164.141 101.022C166.566 102.039 168.77 103.537 170.626 105.427C172.482 107.317 173.952 109.563 174.952 112.036C175.952 114.509 176.461 117.159 176.45 119.834C176.439 122.509 175.908 125.156 174.888 127.62C173.868 130.084 172.378 132.317 170.507 134.191L170.504 134.194L152.42 152.61L137.277 156.16C137.616 155.899 137.938 155.616 138.239 155.31C139.099 154.434 139.781 153.394 140.246 152.251C140.711 151.108 140.95 149.882 140.95 148.646C140.95 147.409 140.711 146.183 140.246 145.04C139.781 143.897 139.099 142.857 138.239 141.981C137.379 141.106 136.358 140.41 135.233 139.936C134.109 139.461 132.903 139.217 131.685 139.217H115.335L110.41 134.19C106.684 130.394 104.589 125.243 104.589 119.87C104.589 114.666 106.555 109.669 110.065 105.91L110.41 105.551C114.137 101.756 119.189 99.6251 124.454 99.625C129.72 99.625 134.772 101.755 138.499 105.551V105.552L140.103 107.18L140.46 107.542L140.816 107.18L142.41 105.556L142.413 105.553C144.252 103.646 146.444 102.129 148.86 101.091C151.277 100.052 153.872 99.5117 156.494 99.5Z" stroke="#8A7A95"/>
<path d="M112.835 138.578L110.309 135.894C106.597 131.834 104.54 126.389 104.581 120.734C104.622 115.079 106.758 109.668 110.528 105.669C114.298 101.67 119.399 99.4045 124.73 99.3611C130.062 99.3176 135.195 101.5 139.023 105.437L140.617 107.127L142.211 105.442C144.09 103.413 146.33 101.799 148.8 100.694C151.271 99.5883 153.923 99.0127 156.605 99.0002C159.286 98.9877 161.943 99.5387 164.423 100.621C166.902 101.704 169.155 103.296 171.051 105.307C172.947 107.318 174.449 109.708 175.47 112.338C176.491 114.968 177.011 117.786 177 120.63C176.989 123.474 176.446 126.288 175.404 128.908C174.363 131.529 172.842 133.905 170.929 135.899L155.759 151.99" stroke="#8A7A95" stroke-opacity="0.55" stroke-width="3" stroke-linecap="square"/>
<path d="M91.3625 179H122.919L150.969 171.857L167.986 164.466C169.621 163.655 170.899 162.249 171.567 160.526C172.234 158.802 172.244 156.887 171.593 155.157C170.942 153.427 169.678 152.008 168.05 151.181C166.422 150.354 164.55 150.178 162.801 150.689L133.438 157.57H131.684M91.3625 179V153.998M91.3625 179H75V153.998H91.3625M131.684 157.57C134.009 157.57 136.239 156.629 137.883 154.955C139.526 153.28 140.45 151.009 140.45 148.641C140.45 146.273 139.526 144.002 137.883 142.327C136.239 140.653 134.009 139.712 131.684 139.712H109.768C108.386 139.709 107.017 139.983 105.739 140.519C104.461 141.055 103.3 141.842 102.321 142.836L91.3625 153.998M131.684 157.57H121.75" stroke="#8A7A95" stroke-width="2" stroke-linecap="square"/>
<defs>
<filter id="filter0_f_886_34" x="0" y="0" width="270" height="270" filterUnits="userSpaceOnUse" color-interpolation-filters="sRGB">
<feFlood flood-opacity="0" result="BackgroundImageFix"/>
<feBlend mode="normal" in="SourceGraphic" in2="BackgroundImageFix" result="shape"/>
<feGaussianBlur stdDeviation="40" result="effect1_foregroundBlur_886_34"/>
</filter>
</defs>
</svg>
