<svg width="108" height="112" viewBox="0 0 108 112" fill="none" xmlns="http://www.w3.org/2000/svg">
<path fill-rule="evenodd" clip-rule="evenodd" d="M15.6095 46.1097H84.9048C91.03 46.1097 96.9044 44.2915 101.236 41.0549C105.567 37.8184 108 33.4287 108 28.8515C108 24.2744 105.567 19.8847 101.236 16.6481C96.9044 13.4116 91.03 11.5933 84.9048 11.5933C83.6153 11.6034 82.3288 11.6894 81.0573 11.8504C77.9978 7.72851 73.3184 4.40809 67.6517 2.33806C61.985 0.268022 55.6043 -0.451782 49.3723 0.275973C43.1404 1.00373 37.3578 3.14394 32.8064 6.40722C28.255 9.67051 25.1544 13.8995 23.9237 18.5223C23.5208 20.0327 23.3161 21.5578 23.3095 23.0976V24.7353C21.2671 23.8206 18.9687 23.2723 16.5948 23.1337C14.221 22.995 11.8364 23.2697 9.62868 23.9362C7.42093 24.6027 5.45014 25.6427 3.87126 26.9746C2.29238 28.3065 1.14845 29.8939 0.5294 31.612C-0.0896498 33.3301 -0.166943 35.1321 0.303597 36.8764C0.774137 38.6206 1.77968 40.2595 3.24118 41.6642C4.70268 43.0689 6.58029 44.2011 8.7264 44.9718C10.8725 45.7426 13.2286 46.1345 15.6095 46.1097Z" fill="white"/>
<path d="M49.5459 1.76562C55.5546 1.06394 61.699 1.76075 67.1367 3.74707C72.5772 5.73447 76.9966 8.89658 79.8525 12.7441L80.376 13.4482L81.2461 13.3389C82.4574 13.1855 83.6835 13.1035 84.9131 13.0938C90.7566 13.0954 96.3017 14.8335 100.338 17.8496C104.368 20.861 106.5 24.8367 106.5 28.8516C106.5 32.8664 104.368 36.8421 100.338 39.8535C96.2999 42.8709 90.7517 44.6093 84.9053 44.6094H15.1797C13.113 44.5857 11.0826 44.2246 9.2334 43.5605C7.26117 42.8522 5.57155 41.8241 4.28027 40.583C2.99068 39.3435 2.14312 37.9354 1.75195 36.4854C1.36239 35.0411 1.42428 33.5527 1.94043 32.1201C2.45892 30.6813 3.43466 29.3056 4.83887 28.1211C6.24414 26.9357 8.0278 25.9863 10.0625 25.3721C12.0962 24.7582 14.3044 24.5022 16.5078 24.6309C18.7114 24.7596 20.8302 25.2687 22.6963 26.1045L24.8096 27.0508V23.1035C24.8156 21.6943 25.0028 20.2972 25.373 18.9092V18.9082C26.4995 14.677 29.3613 10.7229 33.6807 7.62598C38.0014 4.52816 43.5358 2.46753 49.5459 1.76562Z" stroke="#A897B3" stroke-opacity="0.69" stroke-width="3"/>
<path d="M39.7727 46.8479L35.7317 57.76L35.4827 58.4338H65.5139L65.636 58.1096L69.8752 46.8479H73.7815L49.7092 111.5H45.9006L49.9417 100.588L50.1907 99.9143H20.1653L20.0432 100.238L15.7981 111.5H11.8918L35.9641 46.8479H39.7727ZM27.1692 80.9299L21.4172 96.3782L21.1653 97.052H51.2795L51.3997 96.7239L57.0481 81.2766L57.2932 80.6047H27.2903L27.1692 80.9299ZM34.2737 61.6233L28.6252 77.0715L28.3792 77.7434H58.3831L58.5042 77.4172L64.2561 61.97L64.5081 61.2952H34.3938L34.2737 61.6233Z" fill="#BCACC7" stroke="#E7D0F6"/>
</svg>
