<svg width="230" height="230" viewBox="0 0 230 230" fill="none" xmlns="http://www.w3.org/2000/svg">
<path d="M88.2002 139.6L89.7608 138.194M141.24 91.8062L142.8 90.3999M142.8 139.6L141.24 138.194M89.7608 91.8062L88.2002 90.3999" stroke="#8A7A95" stroke-width="1.5" stroke-linecap="round"/>
<path opacity="0.5" d="M115.5 74V82.2M115.5 147.8V156M70 115H79.1M151.9 115H161" stroke="#8A7A95" stroke-width="1.5" stroke-linecap="round"/>
<g filter="url(#filter0_f_886_39)">
<circle cx="115" cy="115" r="35" fill="#E545B3" fill-opacity="0.19"/>
</g>
<path d="M115.5 106.39L113.02 108.505C113.339 108.809 113.724 109.052 114.15 109.217C114.577 109.383 115.036 109.468 115.5 109.468C115.964 109.468 116.424 109.383 116.85 109.217C117.277 109.052 117.661 108.809 117.98 108.505L115.5 106.39ZM112.106 126.349C109.226 124.27 106.437 122.474 104.198 120.166C102.078 117.981 100.713 115.562 100.713 112.454H93.8877C93.8877 117.448 96.1809 121.244 99.0565 124.213C101.818 127.058 105.358 129.358 107.838 131.146L112.106 126.349ZM100.713 112.454C100.713 109.526 102.519 107.189 104.767 106.246C106.787 105.402 109.794 105.43 113.02 108.501L117.98 104.278C113.016 99.551 106.923 98.5629 101.891 100.67C97.0863 102.679 93.8877 107.275 93.8877 112.454H100.713ZM107.838 131.146C108.748 131.802 109.858 132.605 111.023 133.228C112.174 133.843 113.707 134.471 115.5 134.471V128.321C115.468 128.321 115.186 128.304 114.504 127.939C113.667 127.457 112.866 126.925 112.106 126.349L107.838 131.146ZM123.162 131.146C125.642 129.358 129.182 127.058 131.944 124.213C134.819 121.248 137.113 117.448 137.113 112.454H130.288C130.288 115.562 128.923 117.981 126.802 120.166C124.564 122.474 121.775 124.266 118.894 126.349L123.162 131.146ZM137.113 112.454C137.113 107.28 133.914 102.679 129.109 100.67C124.077 98.5629 117.984 99.551 113.02 104.278L117.98 108.501C121.206 105.43 124.213 105.402 126.234 106.246C128.481 107.189 130.288 109.522 130.288 112.454H137.113ZM118.894 126.349C117.921 127.054 117.175 127.579 116.497 127.939C115.819 128.3 115.532 128.321 115.5 128.321V134.471C117.288 134.471 118.826 133.843 119.982 133.228C121.142 132.605 122.252 131.806 123.167 131.146L118.894 126.349Z" fill="#C2B2CC"/>
<defs>
<filter id="filter0_f_886_39" x="0" y="0" width="230" height="230" filterUnits="userSpaceOnUse" color-interpolation-filters="sRGB">
<feFlood flood-opacity="0" result="BackgroundImageFix"/>
<feBlend mode="normal" in="SourceGraphic" in2="BackgroundImageFix" result="shape"/>
<feGaussianBlur stdDeviation="40" result="effect1_foregroundBlur_886_39"/>
</filter>
</defs>
</svg>
