<svg width="19" height="20" viewBox="0 0 19 20" fill="none" xmlns="http://www.w3.org/2000/svg">
<path d="M15.1346 18.3103L17.6721 9.31032C17.7119 9.16934 17.7185 9.02103 17.6914 8.87707C17.6643 8.7331 17.6043 8.59739 17.516 8.48061C17.4278 8.36382 17.3137 8.26915 17.1828 8.20402C17.0519 8.13889 16.9077 8.10509 16.7615 8.10526H11.3368C11.259 8.10526 11.1823 8.08768 11.1122 8.05381C11.0422 8.01995 10.9806 7.97067 10.9322 7.90967C10.8838 7.84866 10.8498 7.77749 10.8326 7.70146C10.8154 7.62542 10.8156 7.54649 10.8331 7.47053L11.0693 6.44547C11.2858 5.50521 11.3552 4.53653 11.2754 3.57495L11.2319 3.05247C11.1853 2.49196 10.942 1.96614 10.5453 1.56842C10.1823 1.20472 9.69008 1.00029 9.17682 1H9.06341C8.75295 1 8.46706 1.16863 8.3168 1.44053L7.06032 3.70711C6.49708 4.72367 5.65741 5.55897 4.63902 6.11579L1.49239 7.83526C1.3432 7.91687 1.21873 8.03728 1.13208 8.18383C1.04543 8.33038 0.999799 8.49764 1 8.668V18.0526C1 18.3039 1.09957 18.5449 1.27681 18.7225C1.45404 18.9002 1.69443 19 1.94508 19H14.225C14.4307 18.9999 14.6309 18.9326 14.795 18.8081C14.9591 18.6836 15.0786 18.5088 15.1346 18.3103Z" stroke="#8E6781" stroke-width="2" stroke-linecap="round" stroke-linejoin="round"/>
</svg>
