<svg width="230" height="230" viewBox="0 0 230 230" fill="none" xmlns="http://www.w3.org/2000/svg">
<g filter="url(#filter0_f_886_43)">
<path d="M150 115C150 134.33 134.33 150 115 150C95.6699 150 79.9999 134.33 79.9999 115C79.9999 95.67 95.6699 80 115 80C134.33 80 150 95.67 150 115Z" fill="#E545B3" fill-opacity="0.19"/>
</g>
<path fill-rule="evenodd" clip-rule="evenodd" d="M78 62.5349C70.2409 62.5349 62.7996 65.4812 57.313 70.7257C51.8265 75.9702 48.7442 83.0832 48.7442 90.5C48.7442 94.9774 49.8449 99.204 51.7963 102.95C52.5807 104.455 52.8811 106.251 52.3878 108.02L50.5027 114.747C50.4236 115.028 50.4234 115.325 50.5023 115.607C50.5811 115.889 50.7361 116.146 50.9518 116.353C51.1675 116.559 51.4363 116.708 51.7311 116.783C52.0259 116.859 52.3363 116.859 52.6313 116.784L59.6748 114.982C61.4547 114.546 63.3401 114.747 64.9757 115.548C69.0212 117.474 73.4804 118.473 78 118.465C85.7591 118.465 93.2005 115.519 98.687 110.274C104.174 105.03 107.256 97.9168 107.256 90.5C107.256 83.0832 104.174 75.9702 98.687 70.7257C93.2005 65.4812 85.7591 62.5349 78 62.5349ZM44 90.5C44 72.5509 59.2225 58 78 58C96.7775 58 112 72.5509 112 90.5C112 108.449 96.7775 123 78 123C72.5663 123 67.4236 121.779 62.8597 119.608C62.2573 119.306 61.5617 119.22 60.8988 119.366L53.8584 121.165C49.0384 122.398 44.6294 118.184 45.9198 113.577L47.8049 106.847C47.9575 106.213 47.8678 105.548 47.5518 104.972C45.2087 100.477 43.9926 95.5223 44 90.5ZM88.3487 77.8688C92.2547 79.2656 94.6047 83.0598 94.6047 87.8033C94.6047 90.5726 93.2288 93.1665 91.5842 95.3221C89.9111 97.5109 87.7572 99.5063 85.771 101.121L85.4769 101.363C83.1459 103.261 81.2071 104.839 78 104.839C74.7898 104.839 72.8542 103.261 70.5232 101.363L70.229 101.121C68.2396 99.5063 66.089 97.5109 64.4158 95.3221C62.7712 93.1665 61.3954 90.5756 61.3954 87.8033C61.3954 83.0598 63.7453 79.2656 67.6514 77.8688C70.9502 76.6898 74.7044 77.4547 78 79.9065C81.2988 77.4577 85.053 76.6898 88.3487 77.8688ZM86.6882 82.1165C85.0499 81.533 82.4437 81.8444 79.6953 84.526C79.4744 84.7418 79.2106 84.9132 78.9195 85.0302C78.6284 85.1472 78.3158 85.2075 78 85.2075C77.6842 85.2075 77.3716 85.1472 77.0805 85.0302C76.7894 84.9132 76.5257 84.7418 76.3048 84.526C73.5563 81.8444 70.9502 81.533 69.315 82.1165C67.702 82.6909 66.1396 84.4565 66.1396 87.8033C66.1396 89.1728 66.8512 90.8174 68.246 92.6465C69.6155 94.4393 71.4625 96.1716 73.3001 97.6651C76.0486 99.9023 76.6906 100.304 78 100.304C79.3094 100.304 79.9515 99.8993 82.6999 97.6651C84.5375 96.1716 86.3846 94.4393 87.7541 92.6465C89.1488 90.8174 89.8605 89.1728 89.8605 87.8033C89.8605 84.4565 88.2949 82.6909 86.6882 82.1165Z" fill="#8A7A95"/>
<path fill-rule="evenodd" clip-rule="evenodd" d="M154.5 109.186C161.917 109.186 169.03 111.906 174.274 116.747C179.519 121.588 182.465 128.154 182.465 135C182.465 139.133 181.413 143.034 179.548 146.492C178.798 147.882 178.511 149.54 178.982 151.172L180.784 157.381C180.86 157.642 180.86 157.915 180.785 158.176C180.709 158.436 180.561 158.673 180.355 158.864C180.149 159.054 179.892 159.192 179.61 159.262C179.328 159.332 179.031 159.332 178.75 159.262L172.017 157.599C170.315 157.196 168.513 157.382 166.95 158.121C163.083 159.899 158.82 160.821 154.5 160.814C147.083 160.814 139.97 158.094 134.726 153.253C129.481 148.412 126.535 141.846 126.535 135C126.535 128.154 129.481 121.588 134.726 116.747C139.97 111.906 147.083 109.186 154.5 109.186ZM187 135C187 118.432 172.449 105 154.5 105C136.551 105 122 118.432 122 135C122 151.568 136.551 165 154.5 165C159.694 165 164.61 163.873 168.972 161.869C169.548 161.59 170.213 161.511 170.847 161.646L177.576 163.306C182.184 164.445 186.398 160.554 185.165 156.301L183.363 150.089C183.217 149.504 183.303 148.891 183.605 148.359C185.845 144.21 187.007 139.636 187 135ZM144.608 123.34C140.874 124.63 138.628 128.132 138.628 132.511C138.628 135.067 139.943 137.461 141.515 139.451C143.114 141.472 145.173 143.313 147.072 144.804L147.353 145.027C149.581 146.78 151.434 148.236 154.5 148.236C157.569 148.236 159.419 146.78 161.647 145.027L161.928 144.804C163.83 143.313 165.886 141.472 167.485 139.451C169.057 137.461 170.372 135.07 170.372 132.511C170.372 128.132 168.126 124.63 164.392 123.34C161.239 122.252 157.65 122.958 154.5 125.221C151.347 122.961 147.758 122.252 144.608 123.34ZM146.195 127.261C147.761 126.723 150.252 127.01 152.88 129.486C153.091 129.685 153.343 129.843 153.621 129.951C153.899 130.059 154.198 130.115 154.5 130.115C154.802 130.115 155.101 130.059 155.379 129.951C155.657 129.843 155.909 129.685 156.12 129.486C158.748 127.01 161.239 126.723 162.802 127.261C164.344 127.792 165.837 129.421 165.837 132.511C165.837 133.775 165.157 135.293 163.824 136.981C162.515 138.636 160.749 140.235 158.993 141.614C156.365 143.679 155.752 144.05 154.5 144.05C153.248 144.05 152.635 143.676 150.007 141.614C148.251 140.235 146.485 138.636 145.176 136.981C143.843 135.293 143.163 133.775 143.163 132.511C143.163 129.421 144.659 127.792 146.195 127.261Z" fill="#8A7A95"/>
<defs>
<filter id="filter0_f_886_43" x="0" y="0" width="230" height="230" filterUnits="userSpaceOnUse" color-interpolation-filters="sRGB">
<feFlood flood-opacity="0" result="BackgroundImageFix"/>
<feBlend mode="normal" in="SourceGraphic" in2="BackgroundImageFix" result="shape"/>
<feGaussianBlur stdDeviation="40" result="effect1_foregroundBlur_886_43"/>
</filter>
</defs>
</svg>
