<svg width="210" height="210" viewBox="0 0 210 210" fill="none" xmlns="http://www.w3.org/2000/svg">
<g filter="url(#filter0_f_856_32)">
<circle cx="105" cy="105" r="55" fill="#D0A2C8" fill-opacity="0.2"/>
</g>
<path d="M139.025 40.8999C138.037 40.8999 137.09 41.2924 136.391 41.9909C135.692 42.6895 135.3 43.637 135.3 44.6249C135.3 45.6128 135.692 46.5603 136.391 47.2589C137.09 47.9574 138.037 48.3499 139.025 48.3499H152.383L116.675 84.0578L96.9622 64.3376C96.6162 63.9907 96.2051 63.7155 95.7526 63.5277C95.3 63.3399 94.8149 63.2432 94.3249 63.2432C93.835 63.2432 93.3498 63.3399 92.8973 63.5277C92.4447 63.7155 92.0336 63.9907 91.6876 64.3376L54.4376 101.588C53.7382 102.287 53.3452 103.236 53.3452 104.225C53.3452 105.214 53.7382 106.163 54.4376 106.862C55.1371 107.562 56.0857 107.955 57.0749 107.955C58.0641 107.955 59.0128 107.562 59.7122 106.862L94.3249 72.2421L114.038 91.9622C114.384 92.3091 114.795 92.5843 115.247 92.7721C115.7 92.9599 116.185 93.0566 116.675 93.0566C117.165 93.0566 117.65 92.9599 118.103 92.7721C118.555 92.5843 118.966 92.3091 119.312 91.9622L157.65 53.6171V66.9749C157.65 67.9628 158.042 68.9103 158.741 69.6089C159.44 70.3074 160.387 70.6999 161.375 70.6999C162.363 70.6999 163.31 70.3074 164.009 69.6089C164.707 68.9103 165.1 67.9628 165.1 66.9749V44.6249C165.1 43.637 164.707 42.6895 164.009 41.9909C163.31 41.2924 162.363 40.8999 161.375 40.8999H139.025ZM146.475 93.0499C145.487 93.0499 144.54 93.4424 143.841 94.1409C143.142 94.8395 142.75 95.787 142.75 96.7749V156.375C142.75 157.363 143.142 158.31 143.841 159.009C144.54 159.707 145.487 160.1 146.475 160.1C147.463 160.1 148.41 159.707 149.109 159.009C149.807 158.31 150.2 157.363 150.2 156.375V96.7749C150.2 95.787 149.807 94.8395 149.109 94.1409C148.41 93.4424 147.463 93.0499 146.475 93.0499ZM86.8749 107.95C85.887 107.95 84.9395 108.342 84.241 109.041C83.5424 109.74 83.1499 110.687 83.1499 111.675V156.375C83.1499 157.363 83.5424 158.31 84.241 159.009C84.9395 159.707 85.887 160.1 86.8749 160.1C87.8629 160.1 88.8103 159.707 89.5089 159.009C90.2075 158.31 90.5999 157.363 90.5999 156.375V111.675C90.5999 110.687 90.2075 109.74 89.5089 109.041C88.8103 108.342 87.8629 107.95 86.8749 107.95ZM112.95 126.575C112.95 125.587 113.342 124.64 114.041 123.941C114.74 123.242 115.687 122.85 116.675 122.85C117.663 122.85 118.61 123.242 119.309 123.941C120.007 124.64 120.4 125.587 120.4 126.575V156.375C120.4 157.363 120.007 158.31 119.309 159.009C118.61 159.707 117.663 160.1 116.675 160.1C115.687 160.1 114.74 159.707 114.041 159.009C113.342 158.31 112.95 157.363 112.95 156.375V126.575ZM53.3499 134.025C53.3499 133.037 53.7424 132.09 54.4409 131.391C55.1395 130.692 56.087 130.3 57.0749 130.3C58.0629 130.3 59.0103 130.692 59.7089 131.391C60.4075 132.09 60.7999 133.037 60.7999 134.025V156.375C60.7999 157.363 60.4075 158.31 59.7089 159.009C59.0103 159.707 58.0629 160.1 57.0749 160.1C56.087 160.1 55.1395 159.707 54.4409 159.009C53.7424 158.31 53.3499 157.363 53.3499 156.375V134.025Z" fill="#8A7A95"/>
<defs>
<filter id="filter0_f_856_32" x="0" y="0" width="210" height="210" filterUnits="userSpaceOnUse" color-interpolation-filters="sRGB">
<feFlood flood-opacity="0" result="BackgroundImageFix"/>
<feBlend mode="normal" in="SourceGraphic" in2="BackgroundImageFix" result="shape"/>
<feGaussianBlur stdDeviation="25" result="effect1_foregroundBlur_856_32"/>
</filter>
</defs>
</svg>
