<svg width="24" height="30" viewBox="0 0 24 30" fill="none" xmlns="http://www.w3.org/2000/svg">
<path d="M0 30V3.12774C0 2.23613 0.308667 1.49226 0.926 0.896129C1.54333 0.3 2.312 0.00129033 3.232 0H20.77C21.69 0 22.4587 0.298709 23.076 0.896129C23.6933 1.49355 24.0013 2.23743 24 3.12774V30L12 25.0122L0 30ZM2 27L12 22.8387L22 27V3.12774C22 2.82968 21.872 2.55613 21.616 2.3071C21.36 2.05806 21.0773 1.93419 20.768 1.93549H3.232C2.924 1.93549 2.64133 2.05935 2.384 2.3071C2.12667 2.55484 1.99867 2.82839 2 3.12774V27Z" fill="#6B4C7D"/>
</svg>
